 <svg width="31" height="31" viewBox="0 0 31 31" fill="none" xmlns="http://www.w3.org/2000/svg">
    <path d="M15.5 0C6.937 0 0 6.937 0 15.5C0 18.6764 0.939 21.6858 2.683 24.1571L0 31L6.84286 28.2821C9.29417 29.9764 12.2548 31 15.5 31C24.063 31 31 24.063 31 15.5C31 6.937 24.063 0 15.5 0ZM23.0506 20.9412C22.5128 21.8232 21.059 21.9174 19.1836 21.0348C16.9854 19.9936 15.5354 18.4714 14.0854 15.9236C12.6354 13.3758 11.8548 10.6684 12.9726 9.79262C13.7174 9.17394 14.139 9.57965 15.3246 10.6981C16.1268 11.4678 16.498 11.9432 17.404 13.2714C18.2272 14.5183 19.0942 14.4072 20.0778 13.5842C20.6312 13.1021 21.0534 13.4748 21.5728 14.2646C22.0922 15.0544 23.588 17.0896 23.0506 20.9412Z" fill="white"/>
  </svg>